<?xml version="1.0" standalone="no"?>
<!DOCTYPE svg PUBLIC "-//W3C//DTD SVG 20010904//EN"
 "http://www.w3.org/TR/2001/REC-SVG-20010904/DTD/svg10.dtd">
<svg version="1.0" xmlns="http://www.w3.org/2000/svg"
 width="132.000000pt" height="48.000000pt" viewBox="0 0 132.000000 48.000000"
 preserveAspectRatio="xMidYMid meet">

<g transform="translate(0.000000,48.000000) scale(0.100000,-0.100000)"
fill="#000000" stroke="none">
<path d="M177 313 c-4 -3 -7 -15 -7 -25 0 -10 -4 -18 -10 -18 -5 0 -10 -7 -10
-15 0 -8 5 -15 10 -15 6 0 10 -14 10 -31 0 -17 4 -28 10 -24 6 3 10 16 10 29
0 12 6 28 12 34 10 10 10 15 -2 23 -13 8 -13 11 3 23 9 7 17 16 17 20 0 8 -35
8 -43 -1z"/>
<path d="M637 293 c-13 -14 -21 -14 -42 -5 -23 11 -25 10 -25 -11 0 -12 7 -33
16 -45 14 -20 14 -22 -3 -23 -15 0 -14 -2 4 -11 16 -8 30 -7 53 2 33 14 44 29
54 75 6 27 4 31 -17 33 -13 1 -31 -6 -40 -15z"/>
<path d="M1064 296 c-3 -7 -4 -33 -2 -57 l3 -44 68 -3 c77 -3 97 6 97 47 0 67
-6 71 -86 71 -54 0 -76 -4 -80 -14z m91 -35 c3 -6 -4 -15 -15 -21 -17 -9 -20
-8 -20 10 0 20 24 28 35 11z"/>
</g>
</svg>
